<svg width="500" height="500" viewBox="0 0 500 500" xmlns="http://www.w3.org/2000/svg">
  <defs>
    <!-- Define gradients for center glow -->
    <radialGradient id="centerGlow1" cx="50%" cy="50%" r="50%">
      <stop offset="0%" stop-color="white" stop-opacity="1"/>
      <stop offset="60%" stop-color="#ffcc00" stop-opacity="0.9"/>
      <stop offset="100%" stop-color="#ff6600" stop-opacity="0"/>
    </radialGradient>
    
    <radialGradient id="centerGlow2" cx="50%" cy="50%" r="50%">
      <stop offset="0%" stop-color="#ffcc00" stop-opacity="0.8"/>
      <stop offset="100%" stop-color="#ff6600" stop-opacity="0"/>
    </radialGradient>
    
    <!-- Define gradients for rays -->
    <linearGradient id="rayGradientWhite" x1="0%" y1="0%" x2="0%" y2="100%">
      <stop offset="0%" stop-color="white" stop-opacity="1"/>
      <stop offset="100%" stop-color="white" stop-opacity="0"/>
    </linearGradient>
    
    <linearGradient id="rayGradientYellow" x1="0%" y1="0%" x2="0%" y2="100%">
      <stop offset="0%" stop-color="#ffcc00" stop-opacity="1"/>
      <stop offset="100%" stop-color="#ffcc00" stop-opacity="0"/>
    </linearGradient>
    
    <linearGradient id="rayGradientOrange" x1="0%" y1="0%" x2="0%" y2="100%">
      <stop offset="0%" stop-color="#ff9900" stop-opacity="1"/>
      <stop offset="100%" stop-color="#ff9900" stop-opacity="0"/>
    </linearGradient>
  </defs>
  
  <!-- Background -->
  <rect width="100%" height="100%" fill="black"/>
  
  <!-- Multiple center glows for enhanced effect -->
  <circle cx="250" cy="250" r="50" fill="url(#centerGlow1)"/>
  <circle cx="250" cy="250" r="80" fill="url(#centerGlow2)"/>
  
  <!-- Long Rays (16) -->
  <g>
    <line x1="250" y1="250" x2="250" y2="60" stroke="url(#rayGradientWhite)" stroke-width="5" transform="rotate(0 250 250)"/>
    <line x1="250" y1="250" x2="250" y2="60" stroke="url(#rayGradientYellow)" stroke-width="5" transform="rotate(22.5 250 250)"/>
    <line x1="250" y1="250" x2="250" y2="60" stroke="url(#rayGradientWhite)" stroke-width="5" transform="rotate(45 250 250)"/>
    <line x1="250" y1="250" x2="250" y2="60" stroke="url(#rayGradientYellow)" stroke-width="5" transform="rotate(67.5 250 250)"/>
    <line x1="250" y1="250" x2="250" y2="60" stroke="url(#rayGradientWhite)" stroke-width="5" transform="rotate(90 250 250)"/>
    <line x1="250" y1="250" x2="250" y2="60" stroke="url(#rayGradientYellow)" stroke-width="5" transform="rotate(112.5 250 250)"/>
    <line x1="250" y1="250" x2="250" y2="60" stroke="url(#rayGradientWhite)" stroke-width="5" transform="rotate(135 250 250)"/>
    <line x1="250" y1="250" x2="250" y2="60" stroke="url(#rayGradientYellow)" stroke-width="5" transform="rotate(157.5 250 250)"/>
    <line x1="250" y1="250" x2="250" y2="60" stroke="url(#rayGradientWhite)" stroke-width="5" transform="rotate(180 250 250)"/>
    <line x1="250" y1="250" x2="250" y2="60" stroke="url(#rayGradientYellow)" stroke-width="5" transform="rotate(202.5 250 250)"/>
    <line x1="250" y1="250" x2="250" y2="60" stroke="url(#rayGradientWhite)" stroke-width="5" transform="rotate(225 250 250)"/>
    <line x1="250" y1="250" x2="250" y2="60" stroke="url(#rayGradientYellow)" stroke-width="5" transform="rotate(247.5 250 250)"/>
    <line x1="250" y1="250" x2="250" y2="60" stroke="url(#rayGradientWhite)" stroke-width="5" transform="rotate(270 250 250)"/>
    <line x1="250" y1="250" x2="250" y2="60" stroke="url(#rayGradientYellow)" stroke-width="5" transform="rotate(292.5 250 250)"/>
    <line x1="250" y1="250" x2="250" y2="60" stroke="url(#rayGradientWhite)" stroke-width="5" transform="rotate(315 250 250)"/>
    <line x1="250" y1="250" x2="250" y2="60" stroke="url(#rayGradientYellow)" stroke-width="5" transform="rotate(337.5 250 250)"/>
  </g>
  
  <!-- Medium Rays (16) -->
  <g>
    <line x1="250" y1="250" x2="250" y2="90" stroke="url(#rayGradientYellow)" stroke-width="3" transform="rotate(11.25 250 250)"/>
    <line x1="250" y1="250" x2="250" y2="90" stroke="url(#rayGradientOrange)" stroke-width="3" transform="rotate(33.75 250 250)"/>
    <line x1="250" y1="250" x2="250" y2="90" stroke="url(#rayGradientYellow)" stroke-width="3" transform="rotate(56.25 250 250)"/>
    <line x1="250" y1="250" x2="250" y2="90" stroke="url(#rayGradientOrange)" stroke-width="3" transform="rotate(78.75 250 250)"/>
    <line x1="250" y1="250" x2="250" y2="90" stroke="url(#rayGradientYellow)" stroke-width="3" transform="rotate(101.25 250 250)"/>
    <line x1="250" y1="250" x2="250" y2="90" stroke="url(#rayGradientOrange)" stroke-width="3" transform="rotate(123.75 250 250)"/>
    <line x1="250" y1="250" x2="250" y2="90" stroke="url(#rayGradientYellow)" stroke-width="3" transform="rotate(146.25 250 250)"/>
    <line x1="250" y1="250" x2="250" y2="90" stroke="url(#rayGradientOrange)" stroke-width="3" transform="rotate(168.75 250 250)"/>
    <line x1="250" y1="250" x2="250" y2="90" stroke="url(#rayGradientYellow)" stroke-width="3" transform="rotate(191.25 250 250)"/>
    <line x1="250" y1="250" x2="250" y2="90" stroke="url(#rayGradientOrange)" stroke-width="3" transform="rotate(213.75 250 250)"/>
    <line x1="250" y1="250" x2="250" y2="90" stroke="url(#rayGradientYellow)" stroke-width="3" transform="rotate(236.25 250 250)"/>
    <line x1="250" y1="250" x2="250" y2="90" stroke="url(#rayGradientOrange)" stroke-width="3" transform="rotate(258.75 250 250)"/>
    <line x1="250" y1="250" x2="250" y2="90" stroke="url(#rayGradientYellow)" stroke-width="3" transform="rotate(281.25 250 250)"/>
    <line x1="250" y1="250" x2="250" y2="90" stroke="url(#rayGradientOrange)" stroke-width="3" transform="rotate(303.75 250 250)"/>
    <line x1="250" y1="250" x2="250" y2="90" stroke="url(#rayGradientYellow)" stroke-width="3" transform="rotate(326.25 250 250)"/>
    <line x1="250" y1="250" x2="250" y2="90" stroke="url(#rayGradientOrange)" stroke-width="3" transform="rotate(348.75 250 250)"/>
  </g>
  
  <!-- Short Rays (16) -->
  <g>
    <line x1="250" y1="250" x2="250" y2="120" stroke="url(#rayGradientWhite)" stroke-width="1" transform="rotate(5.625 250 250)"/>
    <line x1="250" y1="250" x2="250" y2="120" stroke="url(#rayGradientYellow)" stroke-width="1" transform="rotate(16.875 250 250)"/>
    <line x1="250" y1="250" x2="250" y2="120" stroke="url(#rayGradientWhite)" stroke-width="1" transform="rotate(28.125 250 250)"/>
    <line x1="250" y1="250" x2="250" y2="120" stroke="url(#rayGradientYellow)" stroke-width="1" transform="rotate(39.375 250 250)"/>
    <line x1="250" y1="250" x2="250" y2="120" stroke="url(#rayGradientWhite)" stroke-width="1" transform="rotate(50.625 250 250)"/>
    <line x1="250" y1="250" x2="250" y2="120" stroke="url(#rayGradientYellow)" stroke-width="1" transform="rotate(61.875 250 250)"/>
    <line x1="250" y1="250" x2="250" y2="120" stroke="url(#rayGradientWhite)" stroke-width="1" transform="rotate(73.125 250 250)"/>
    <line x1="250" y1="250" x2="250" y2="120" stroke="url(#rayGradientYellow)" stroke-width="1" transform="rotate(84.375 250 250)"/>
    <line x1="250" y1="250" x2="250" y2="120" stroke="url(#rayGradientWhite)" stroke-width="1" transform="rotate(95.625 250 250)"/>
    <line x1="250" y1="250" x2="250" y2="120" stroke="url(#rayGradientYellow)" stroke-width="1" transform="rotate(106.875 250 250)"/>
    <line x1="250" y1="250" x2="250" y2="120" stroke="url(#rayGradientWhite)" stroke-width="1" transform="rotate(118.125 250 250)"/>
    <line x1="250" y1="250" x2="250" y2="120" stroke="url(#rayGradientYellow)" stroke-width="1" transform="rotate(129.375 250 250)"/>
    <line x1="250" y1="250" x2="250" y2="120" stroke="url(#rayGradientWhite)" stroke-width="1" transform="rotate(140.625 250 250)"/>
    <line x1="250" y1="250" x2="250" y2="120" stroke="url(#rayGradientYellow)" stroke-width="1" transform="rotate(151.875 250 250)"/>
    <line x1="250" y1="250" x2="250" y2="120" stroke="url(#rayGradientWhite)" stroke-width="1" transform="rotate(163.125 250 250)"/>
    <line x1="250" y1="250" x2="250" y2="120" stroke="url(#rayGradientYellow)" stroke-width="1" transform="rotate(174.375 250 250)"/>
  </g>
</svg>