<?xml version="1.0" encoding="UTF-8"?><svg id="Layer_1" xmlns="http://www.w3.org/2000/svg" xmlns:xlink="http://www.w3.org/1999/xlink" viewBox="0 0 2100 2100"><defs><style>.cls-1{fill:none;}.cls-2{isolation:isolate;}.cls-3{fill:#2991f5;}.cls-4{clip-path:url(#clippath-1);}.cls-5{clip-path:url(#clippath-3);}.cls-6{clip-path:url(#clippath-2);}.cls-7{fill:#10cd55;}.cls-8{clip-path:url(#clippath);}</style><clipPath id="clippath"><rect class="cls-1" width="2100" height="2100"/></clipPath><clipPath id="clippath-1"><rect class="cls-1" x="102" y="110" width="1884" height="1881"/></clipPath><clipPath id="clippath-2"><rect class="cls-1" x="-298.4" y="-487.7" width="2778.6" height="2869.1"/></clipPath><clipPath id="clippath-3"><rect class="cls-1" x="213.3" y="-288.5" width="642.1" height="2989.1"/></clipPath></defs><g class="cls-8"><image class="cls-2" width="2100" height="2100" xlink:href="scribble icon-1.png"/></g><g class="cls-4"><image class="cls-2" width="1884" height="1881" transform="translate(102 110)" xlink:href="scribble icon-2.png"/></g><g class="cls-6"><path class="cls-3" d="M1205,866.8c88.1,6.1,176.5,17.7,262.1,39.7,79.3,22.2,154.8,55.5,232.1,83.6-46.1-89.3-91.5-179.1-145.8-263.9-130.3,39.5-257.1,88.7-383.4,139.3,11.7.2,23.3.8,35,1.2v.1ZM2122.2,1694c-23.5-4.9-39.2-23.7-50.9-43.4-19.3-29.2-39.6-57.9-57.1-88.2-45.9-82.6-97.3-165.6-137.7-250.7-12-24-23.9-48-36-72-5.3-7.9-15.3-11.9-22.6-18.1-45.3-30.7-88.6-65.2-137.8-89.6-48.7-21.7-99.5-38.3-148.9-58-74.7-30.9-153.4-49.7-233.5-59-92.2-15-185.7-13.8-278.3-3.1-115.3,12.9-232.2,21-343.8,54.6-51.8,13.3-100.3,35-148.2,58.4-119.6,58.4-236.9,121.4-358.2,176.5-67.7,32.2-136.1,62.9-202.3,98-38.7,20-77.4,40.7-118.8,54.6-47.5,19-106.1,31.4-132.4-25.8-13.8-31.5-.1-70.6,29.7-87.6,18-9.6,36.3-18.5,54.6-27.3,68.2-30.1,131.5-69.8,197.8-103.7,152.8-79.1,312.5-143.3,469.2-214.1,87.6-34.9,173.6-73.5,261.3-108.2,93.2-34.1,184.8-72.3,277.8-107,158.6-58.7,314-126.7,476-176.1-53.9-110.1-134.2-204.4-189.3-313.8-26.5-49.9-46-103.1-71.5-153.5-39.5-73.8-81.2-146.9-106.5-227.1-18.8-57.6-46.6-116.3-39.1-178.3,1.5-26.6,29-60.1,53.5-33.3v-.1c.7.8,1.3,1.7,1.9,2.5,8.2,3.2,18.7,3.7,23.6,11.9,5.4,8.7.3,21.3-9.7,23.7,12.1,35.2,32.2,66.7,48.9,99.8,19.3,36.2,36.1,73.7,56.3,109.4,34.1,59.4,73.8,115.6,103.9,177.2,17.7,35.6,34,72,53.2,106.8,39.9,74.4,91.5,141.3,137.3,211.9,24.6,37.8,44.4,78.5,66.9,117.5,206.3-84.6,419.2-153.5,619.1-253.3,31.1-15.4,62.2-30.9,93.8-45.2,20-8.6,39.6-20.6,62-20.4,82.4,3,93.5,113.7,14.9,137.1-108.7,50.4-215.8,104.4-326.7,150.1-129.4,52.6-261.7,97.9-390.9,151.3,79,123.4,136.3,259.2,213.3,383.8,16.7,26.8,33.2,53.9,48.3,81.6,9.6,7.4,19,14.9,28.2,22.8,57.8,47.6,107.3,105.8,141.6,172.5,43.3,82.5,74.5,171.7,93,262.9,12.3,53.7-29.3,106.7-86.1,91.8l.2.2Z"/><path class="cls-3" d="M980.7,1459.2c-34.5-14.1-51.6-56.6-36.5-90.7,15.9-30.3,42-54,59.9-83.2,18.8-25.6,35-52.7,50.9-80.2,30.9-49.5,64.1-97.6,95.1-147,39.9-57.6,74.7-118.1,108.7-179.2,55-90.4,109.2-181.2,158.9-274.7,29.4-56.1,63.3-109.9,88.6-168,26.6-63,56.5-124.6,79.8-189,10.9-31.3,20.5-63.1,28.4-95.3,19.4-75.1,48.5-147.2,77-219.2,14-45.3,24.5-92.1,47.6-134,9.7-15.8,17.3-38.3,36.8-43.3-.5.1-1,.2-1.5.3h0c41.8-6.4,19.8,87.6,22.6,112-1.6,37.6-2.4,75.5-11.2,112.2-7.5,32.1-16.5,63.9-24.4,95.9-18.7,64.9-28.2,131.9-47.3,196.7-20.2,68.9-50.2,134.3-77.2,200.7-26.4,67-63.5,128.8-97.1,192.3-56.5,110.1-122.7,214.7-184.3,321.8-56,102.8-126.4,197-187.1,297-26.8,46.2-56.9,90.5-90.1,132.3-23.9,35.2-52.7,59.8-97.6,42.6h0Z"/><path class="cls-3" d="M1226.4,2374.4c-42.8-4.9-72-52.7-55.3-92.8,4.4-161.2,25.1-321.2,41.9-481.4,32.6-296.6,90.4-590,154.3-881.2,24.8-107.7,46-216.4,77.5-322.3,35.4-105.1,66.5-211.4,98.5-317.5,44.9-131.2,91.4-263.8,156.2-386.5,24.5-48.5,57.8-91.7,87-137.4,3.3-5.4,5.8-11.2,9-16.7,2-3.7,8.5-1.7,7.6,2.7h0c-12.9,50.6-21.3,102.3-32.2,153.3-43.9,187.9-100.7,372.4-146.7,559.8-13.5,52-29.7,103.2-45.4,154.5-45.7,164.1-77.5,331.9-112.3,498.6-73.7,347.9-123.5,700.7-151.5,1055-3.7,47.2-2.6,94.8-7.8,141.9-2.5,40.6-38.9,76.8-80.8,70.1v-.1Z"/></g><g class="cls-5"><path class="cls-7" d="M225.1,2693.6h0c-.9-1.2-1.8-2.4-2.6-3.7-.9-1.6-1.6-3.3-2.3-5-1.2-2.7-1.9-5.8-2.6-8.7-1.8-7.7-2.2-15.5-2.7-23.4-.8-13.4-.3-26.9-.6-40.3-.3-12.4-.7-24.9-.6-37.3,0-12.4.7-24.7,1.2-37,.6-14,1.3-27.9,2.4-41.9,1.1-13.9,2.9-27.8,4.6-41.7,1.6-13.1,3.4-26.2,4.9-39.3,1.6-13.9,3.4-27.8,5.4-41.7,15-101.7,33.7-202.8,52.4-303.9,19.7-105.9,39.7-211.8,59.7-317.7,20.8-110.5,41.6-220.9,62.5-331.4,20.4-108,40.7-215.9,61.1-323.9,22-116.6,44-233.3,66-349.9,21.3-113,42.6-226,64-339.1,20.4-108.3,40.8-216.5,61.3-324.8,18.9-100.4,37.9-200.9,56.8-301.3.6-2.9,1.1-5.8,1.7-8.8.6-3,1.3-6,1.9-9,1.6-5.8,4-11.3,7-16.4,4.5-7.6,10.5-14.3,17.5-19.7,14.6-11.2,33.4-16,51.6-13.5,17.8,2.5,34.2,12.2,45.1,26.4,5.4,7.1,9.5,15.2,11.8,23.9.6,3,1.2,6,1.8,9,.8,6.2.8,12.5,0,18.7-17.4,92.4-34.9,184.9-52.3,277.3-20.2,106.8-40.3,213.7-60.5,320.5-21.4,113.3-42.8,226.6-64.1,339.9-22.1,117-44.1,233.9-66.2,350.9-20.6,109.3-41.2,218.6-61.9,327.9-20.8,110.3-41.6,220.5-62.4,330.8-20.2,107-40.4,214-60.8,321-14.2,74.8-28.4,149.6-42.2,215.3-.8,3.8-1.6,7.6-2,9.8-.1.6-.2,1.2-.4,1.8v.7c-6,27.8-12,55.5-18.1,83.1-2.6,12-5.4,24-8.1,36-3.1,13.4-6.8,26.8-10.2,40.1-6.7,26.3-12.9,52.8-20.9,78.7-3.6,11.7-7.8,23.2-11.7,34.8-4.5,13.3-9.3,26.5-14.4,39.6-3,7.6-6.3,15.1-9.4,22.6-3.8,9.2-7.4,18.5-11.2,27.7-3.3,8.1-6.8,16.2-10.7,24-2.3,4.6-5,9.2-8.3,13.2-1.4,1.8-2.9,3.5-4.5,5.1-2,2-4.2,3.6-6.6,5.1-2.6,1.6-5.4,2.3-8.3,2.3-5.3,0-10.6-2.5-13.9-6.8h-.2Z"/></g></svg>