<svg width="1024" height="500" viewBox="0 0 1024 500" fill="none" xmlns="http://www.w3.org/2000/svg">
<line x1="0" y1="436" x2="1024" y2="436" stroke="grey" stroke-width="16" stroke-linecap="round"/>
<line x1="0" y1="456" x2="1024" y2="456" stroke="grey" stroke-width="6" stroke-linecap="round"/>
<line x1="0" y1="474" x2="1024" y2="474" stroke="grey" stroke-width="4" stroke-linecap="round"/>
<svg x="262" y="0" width="500" height="500" viewBox="0 0 1000 1000" fill="none" xmlns="http://www.w3.org/2000/svg">
<path d="M778 872L99 872" stroke="grey" stroke-width="32" stroke-linecap="round"/>
<path d="M314.418 96.6763C368.807 87.086 420.673 123.403 430.264 177.792L434.778 203.397L119.64 258.965L115.125 233.36C105.535 178.97 141.852 127.104 196.241 117.514L314.418 96.6763Z" fill="#FF645F"/>
<path d="M437.496 238.966L131.221 292.97L198.77 676.061C198.77 676.061 253.595 710.565 358.188 687.553C462.781 664.541 506.695 631.412 506.695 631.412L437.496 238.966Z" fill="#FFA75F" stroke="#04B7E4" stroke-width="2"/>
<path d="M414.216 674.177C397.747 679.36 378.891 684.49 357.504 689.195C336.462 693.825 317.422 696.133 300.427 696.865L226.168 275.721L340.406 255.578L414.216 674.177Z" fill="#FFC28F"/>
<path d="M389.015 827.831C344.727 838.686 304.788 822.374 304.788 822.374C304.788 822.374 373.163 890.536 401.694 882.459C430.225 874.382 469.251 793.375 469.251 793.375C469.251 793.375 433.303 816.975 389.015 827.831Z" fill="yellow" stroke="#04B7E4" stroke-width="2"/>
<path d="M308.176 824.315L198.595 683.707C198.595 683.707 260.286 705.323 354.422 689.232C448.558 673.141 504.87 629.702 504.87 629.702L508.778 651.861L469.309 790.825C469.309 790.825 426.032 821.811 387.364 827.106C348.696 832.401 308.176 824.315 308.176 824.315Z" fill="#FFD65F" stroke="#04B7E4" stroke-width="2"/>
<path d="M196.588 119.484L314.765 98.6461C366.979 89.4393 416.77 124.304 425.977 176.517L506.259 631.821C508.373 643.805 508.222 656.105 505.581 667.923C490.172 736.853 471.938 789.278 453.22 825.219C443.86 843.192 434.444 856.916 425.301 866.507C416.128 876.129 407.48 881.332 399.672 882.815C392.096 884.254 382.034 881.946 369.403 875C356.86 868.102 342.299 856.913 325.97 841.481C293.328 810.63 254.099 763.281 210.39 700.859C202.589 689.719 197.395 676.903 195.026 663.466L118.717 230.696C109.51 178.482 144.375 128.691 196.588 119.484Z" stroke="black" stroke-width="8"/>
<path d="M201.029 680.232C201.029 680.232 260.924 703.18 359.172 687.379C457.421 671.578 505.508 627.559 505.508 627.559M306.497 820.549C306.497 820.549 343.887 836.803 392.201 825.746C440.515 814.688 468.005 792.071 468.005 792.071" stroke="black" stroke-width="8" stroke-linecap="round"/>
<path d="M290.762 457.77C290.762 457.77 300.838 480.364 324.879 475.617C348.92 470.87 351.82 447.004 351.82 447.004" stroke="black" stroke-width="16" stroke-linecap="round"/>
<circle cx="226.432" cy="461.497" r="40" transform="rotate(-10 226.432 461.497)" fill="black"/>
<circle cx="206.041" cy="461.031" r="10" transform="rotate(-10 206.041 461.031)" fill="white"/>
<circle cx="410.591" cy="429.025" r="40" transform="rotate(-10 410.591 429.025)" fill="black"/>
<circle cx="390.2" cy="428.559" r="10" transform="rotate(-10 390.2 428.559)" fill="white"/>
<rect x="99.7131" y="255.37" width="359" height="41" rx="20.5" transform="rotate(-10 99.7131 255.37)" fill="#D9D9D9" stroke="black" stroke-width="8"/>
<path d="M694.418 96.6763C748.807 87.086 800.673 123.403 810.264 177.792L814.778 203.397L499.64 258.965L495.125 233.36C485.535 178.97 521.852 127.104 576.241 117.514L694.418 96.6763Z" fill="#FF645F"/>
<path d="M817.496 238.966L511.221 292.97L578.77 676.061C578.77 676.061 633.595 710.565 738.188 687.553C842.781 664.541 886.695 631.412 886.695 631.412L817.496 238.966Z" fill="#FFA75F" stroke="#04B7E4" stroke-width="2"/>
<path d="M794.216 674.177C777.747 679.36 758.891 684.49 737.504 689.195C716.462 693.825 697.422 696.133 680.427 696.865L606.168 275.721L720.406 255.578L794.216 674.177Z" fill="#FFC28F"/>
<path d="M769.015 827.831C724.727 838.686 684.788 822.374 684.788 822.374C684.788 822.374 753.163 890.536 781.694 882.459C810.225 874.382 849.251 793.374 849.251 793.374C849.251 793.374 813.303 816.975 769.015 827.831Z" fill="yellow" stroke="#04B7E4" stroke-width="2"/>
<path d="M688.176 824.315L578.595 683.707C578.595 683.707 640.286 705.323 734.422 689.232C828.558 673.141 884.87 629.702 884.87 629.702L888.778 651.861L849.309 790.825C849.309 790.825 806.032 821.811 767.364 827.106C728.696 832.401 688.176 824.315 688.176 824.315Z" fill="#FFD65F" stroke="#04B7E4" stroke-width="2"/>
<path d="M576.588 119.484L694.765 98.6461C746.979 89.4393 796.77 124.304 805.977 176.517L886.259 631.821C888.373 643.805 888.222 656.105 885.581 667.923C870.172 736.853 851.938 789.278 833.22 825.219C823.86 843.192 814.444 856.916 805.301 866.507C796.128 876.129 787.48 881.332 779.672 882.815C772.096 884.254 762.034 881.946 749.403 875C736.86 868.102 722.299 856.913 705.97 841.481C673.328 810.63 634.099 763.281 590.39 700.859C582.589 689.719 577.395 676.903 575.026 663.466L498.717 230.696C489.51 178.482 524.375 128.691 576.588 119.484Z" stroke="black" stroke-width="8"/>
<path d="M581.029 680.232C581.029 680.232 640.924 703.18 739.172 687.379C837.421 671.578 885.508 627.559 885.508 627.559M686.497 820.549C686.497 820.549 723.887 836.803 772.201 825.746C820.515 814.688 848.005 792.071 848.005 792.071" stroke="black" stroke-width="8" stroke-linecap="round"/>
<path d="M670.762 457.77C670.762 457.77 680.838 480.364 704.879 475.617C728.92 470.87 731.82 447.004 731.82 447.004" stroke="black" stroke-width="16" stroke-linecap="round"/>
<circle cx="606.432" cy="461.497" r="40" transform="rotate(-10 606.432 461.497)" fill="black"/>
<circle cx="586.041" cy="461.031" r="10" transform="rotate(-10 586.041 461.031)" fill="white"/>
<circle cx="790.591" cy="429.025" r="40" transform="rotate(-10 790.591 429.025)" fill="black"/>
<circle cx="770.2" cy="428.559" r="10" transform="rotate(-10 770.2 428.559)" fill="white"/>
<rect x="479.713" y="255.37" width="359" height="41" rx="20.5" transform="rotate(-10 479.713 255.37)" fill="#D9D9D9" stroke="black" stroke-width="8"/>
</svg>
</svg>
